REM Generated by IcecastMetadataRecorder
REM 2020-07-29T21:16:11.222Z
TITLE "isics-all"
FILE "isics-all.mp3" WAVE
  TRACK 1 AUDIO
    TITLE "2020-07-29T21:29:43.926Z TO:24631 Dallas County Fire/EMS Operations FROM:UNKNOWN"
    INDEX 01 13:32:52
  TRACK 2 AUDIO
    TITLE "2020-07-29T21:29:48.150Z TO:14002 Region 4 Interoperability Tac 42 FROM:UNKNOWN"
    INDEX 01 13:36:69
  TRACK 3 AUDIO
    TITLE "2020-07-29T21:29:54.422Z TO:14002 Region 4 Interoperability Tac 42 FROM:UNKNOWN"
    INDEX 01 13:43:15
  TRACK 4 AUDIO
    TITLE "2020-07-29T21:29:55.126Z TO:14002 Region 4 Interoperability Tac 42 FROM:UNKNOWN"
    INDEX 01 13:43:67
  TRACK 5 AUDIO
    TITLE "2020-07-29T21:30:08.438Z TO:24631 Dallas County Fire/EMS Operations FROM:2559981"
    INDEX 01 13:57:16
  TRACK 6 AUDIO
    TITLE "2020-07-29T21:30:10.550Z TO:24631 Dallas County Fire/EMS Operations FROM:2520301"
    INDEX 01 13:59:24
  TRACK 7 AUDIO
    TITLE "2020-07-29T21:30:14.742Z TO:14002 Region 4 Interoperability Tac 42 FROM:UNKNOWN"
    INDEX 01 14:03:38
  TRACK 8 AUDIO
    TITLE "2020-07-29T21:30:21.046Z TO:24631 Dallas County Fire/EMS Operations FROM:2559981"
    INDEX 01 14:09:61
  TRACK 9 AUDIO
    TITLE "2020-07-29T21:30:23.126Z TO:14002 Region 4 Interoperability Tac 42 FROM:UNKNOWN"
    INDEX 01 14:11:67
  TRACK 10 AUDIO
    TITLE "END"
    INDEX 01 14:16:09